# xmcd
#
# Track frame offsets: 
#        150
#        14257
#        32478
#        47605
#        68266
#        84120
#        99821
#        121930
#        142155
#        158103
#        179403
#        196846
#        242102
#        253650
#        271414
#
# Disc length: 3777 seconds
#
# Revision: 0
# Processed by: cddbd v1.5.2PL0 Copyright (c) Steve Scherf et al.
# Submitted via: ExactAudioCopy v0.99pb4
#
DISCID=b80ebf0f
DTITLE=Александр Растопчин - Ветер Перемен
DYEAR=2009
DGENRE=Blues Rock
TTITLE0=Going Home
TTITLE1=Iron Twang
TTITLE2=Just One Night
TTITLE3=Generation
TTITLE4=Wind of Change Part 2
TTITLE5=Feeling Happy
TTITLE6=I Want You Back
TTITLE7=Raining (in Wellfleet)
TTITLE8=Rolling Down the Road
TTITLE9=She Doesn't Know
TTITLE10=Going Mad
TTITLE11=Dark Blue
TTITLE12=Mr. Mom
TTITLE13=Goodbye My Country
TTITLE14=Immigrant Song
EXTD=
EXTT0=
EXTT1=
EXTT2=
EXTT3=
EXTT4=
EXTT5=
EXTT6=
EXTT7=
EXTT8=
EXTT9=
EXTT10=
EXTT11=
EXTT12=
EXTT13=
EXTT14=
PLAYORDER=
